<?xml version="1.0" encoding="UTF-8" standalone="no"?>
<!-- Created with Inkscape (http://www.inkscape.org/) -->

<svg
   xmlns:dc="http://purl.org/dc/elements/1.1/"
   xmlns:cc="http://creativecommons.org/ns#"
   xmlns:rdf="http://www.w3.org/1999/02/22-rdf-syntax-ns#"
   xmlns:svg="http://www.w3.org/2000/svg"
   xmlns="http://www.w3.org/2000/svg"
   xmlns:sodipodi="http://sodipodi.sourceforge.net/DTD/sodipodi-0.dtd"
   xmlns:inkscape="http://www.inkscape.org/namespaces/inkscape"
   width="214.46182mm"
   height="69.078484mm"
   viewBox="0 0 214.46182 69.078484"
   version="1.1"
   id="svg8"
   inkscape:version="0.92.4 (5da689c313, 2019-01-14)"
   sodipodi:docname="client-server.svg">
  <defs
     id="defs2">
    <marker
       inkscape:stockid="Arrow1Lend"
       orient="auto"
       refY="0"
       refX="0"
       id="Arrow1Lend"
       style="overflow:visible"
       inkscape:isstock="true">
      <path
         id="path868"
         d="M 0,0 5,-5 -12.5,0 5,5 Z"
         style="fill:#000000;fill-opacity:1;fill-rule:evenodd;stroke:#000000;stroke-width:1.00000003pt;stroke-opacity:1"
         transform="matrix(-0.8,0,0,-0.8,-10,0)"
         inkscape:connector-curvature="0" />
    </marker>
    <marker
       inkscape:stockid="Arrow1Lstart"
       orient="auto"
       refY="0"
       refX="0"
       id="Arrow1Lstart"
       style="overflow:visible"
       inkscape:isstock="true">
      <path
         id="path865"
         d="M 0,0 5,-5 -12.5,0 5,5 Z"
         style="fill:#000000;fill-opacity:1;fill-rule:evenodd;stroke:#000000;stroke-width:1.00000003pt;stroke-opacity:1"
         transform="matrix(0.8,0,0,0.8,10,0)"
         inkscape:connector-curvature="0" />
    </marker>
  </defs>
  <sodipodi:namedview
     id="base"
     pagecolor="#ffffff"
     bordercolor="#666666"
     borderopacity="1.0"
     inkscape:pageopacity="0.0"
     inkscape:pageshadow="2"
     inkscape:zoom="0.24748737"
     inkscape:cx="344.29016"
     inkscape:cy="127.79216"
     inkscape:document-units="mm"
     inkscape:current-layer="layer1"
     showgrid="false"
     fit-margin-top="0"
     fit-margin-left="0"
     fit-margin-right="0"
     fit-margin-bottom="0"
     inkscape:window-width="1920"
     inkscape:window-height="1016"
     inkscape:window-x="0"
     inkscape:window-y="27"
     inkscape:window-maximized="1" />
  <metadata
     id="metadata5">
    <rdf:RDF>
      <cc:Work
         rdf:about="">
        <dc:format>image/svg+xml</dc:format>
        <dc:type
           rdf:resource="http://purl.org/dc/dcmitype/StillImage" />
        <dc:title></dc:title>
      </cc:Work>
    </rdf:RDF>
  </metadata>
  <g
     inkscape:label="Layer 1"
     inkscape:groupmode="layer"
     id="layer1"
     transform="translate(397.75232,-60.432484)">
    <path
       style="fill:#ffffff;fill-opacity:1;stroke-width:0.26458335"
       d="m -379.47858,127.39438 c -0.17463,-0.17462 -0.3175,-0.889 -0.3175,-1.5875 v -1.27 h -2.13702 c -2.0092,0 -2.18328,-0.0463 -2.91042,-0.77339 l -0.7734,-0.7734 v -4.10894 c 0,-2.39087 0.12006,-4.37244 0.28713,-4.73913 0.4823,-1.05853 1.57782,-1.51138 3.6563,-1.51138 h 1.87741 v -0.79375 -0.79375 h -1.86948 c -3.53436,0 -3.93768,-0.5448 -3.94547,-5.32951 -0.006,-3.81657 -0.0445,-3.93091 -1.3149,-3.93091 -0.25958,0 -1.30736,-0.41793 -2.32838,-0.92872 -2.25601,-1.128639 -3.7845,-2.716534 -4.91804,-5.109174 -0.76634,-1.617586 -0.83728,-1.991471 -0.83728,-4.413147 0,-2.426629 0.07,-2.793593 0.84485,-4.429324 1.409,-2.974412 4.32321,-5.375397 7.18776,-5.921899 0.85471,-0.163063 0.88256,-0.206351 0.725,-1.126884 -0.69141,-4.039651 -0.36772,-6.696584 1.1966,-9.82199 3.55752,-7.107706 12.25346,-9.891749 19.31174,-6.182731 2.29293,1.204902 4.59692,3.453776 5.74475,5.607338 l 0.85672,1.607358 0.85597,-0.505035 c 1.43169,-0.844719 4.09675,-1.401476 5.90172,-1.232929 5.29102,0.494086 9.25253,4.425387 9.80722,9.73245 l 0.15572,1.489771 1.53473,0.160411 c 7.96127,0.832118 12.23022,9.398752 8.1106,16.275795 -1.5744,2.628201 -4.2747,4.36566 -7.59831,4.889 l -1.85069,0.29141 -0.006,3.57946 c -0.008,4.75073 -0.41622,5.29926 -3.94549,5.29926 h -1.86947 v 0.79375 0.79375 h 1.86947 c 1.99204,0 2.7503,0.25158 3.48246,1.15544 0.39081,0.48247 0.45799,1.19112 0.46302,4.88418 l 0.006,4.31983 -0.7734,0.7734 c -0.72713,0.72713 -0.90122,0.77339 -2.91041,0.77339 h -2.13701 v 1.27 c 0,0.6985 -0.14288,1.41288 -0.3175,1.5875 -0.45839,0.45839 -30.65662,0.45839 -31.115,0 z m 29.845,-2.06375 v -0.79375 h -14.2875 -14.2875 v 0.79375 0.79375 h 14.2875 14.2875 z m 5.55625,-2.64583 c 0.47615,-0.47615 0.52916,-0.88194 0.52916,-4.05047 0,-2.62318 -0.0958,-3.6523 -0.37547,-4.03489 -0.36462,-0.49875 -0.91723,-0.51583 -19.11615,-0.59079 -10.30737,-0.0425 -19.12379,-0.008 -19.59206,0.0765 -1.54949,0.27979 -1.66215,0.58599 -1.66215,4.51747 0,3.2002 0.0525,3.60552 0.52917,4.08214 0.5195,0.5195 0.88194,0.52917 19.84375,0.52917 18.9618,0 19.32425,-0.01 19.84375,-0.52917 z m -12.31515,-2.50151 c -1.07062,-1.07061 -0.85725,-2.79686 0.42782,-3.4614 1.05239,-0.54421 1.69141,-0.48363 2.53278,0.24008 0.55525,0.47761 0.72913,0.86436 0.72913,1.62179 0,1.9552 -2.32581,2.96345 -3.68973,1.59953 z m 2.12869,-1.5959 c 0,-0.60539 -0.88824,-0.88977 -1.20059,-0.38438 -0.32724,0.52949 0.0264,1.07745 0.63895,0.99005 0.35706,-0.051 0.56164,-0.27156 0.56164,-0.60567 z m 4.00443,1.69696 c -0.53557,-0.42128 -0.69714,-0.7824 -0.69714,-1.55819 0,-1.4783 0.72413,-2.24704 2.11667,-2.24704 1.35304,0 2.11666,0.7742 2.11666,2.14598 0,1.87257 -2.04508,2.83216 -3.53619,1.65925 z m 2.08099,-1.69696 c 0,-0.58372 -0.82257,-0.8744 -1.25386,-0.4431 -0.44471,0.4447 -0.006,1.14755 0.65736,1.05334 0.39031,-0.0554 0.5965,-0.26636 0.5965,-0.61024 z m -32.89289,0.0625 0.0846,-0.59532 h 10.31875 10.31875 l 0.0846,0.59532 0.0845,0.59531 h -10.48785 -10.48784 z m 31.43768,-6.81302 v -0.79375 h -14.2875 -14.2875 v 0.79375 0.79375 h 14.2875 14.2875 z m 5.70994,-2.76255 c 0.27971,-0.3826 0.37547,-1.41169 0.37547,-4.0349 0,-3.16853 -0.053,-3.57432 -0.52916,-4.05047 -0.5195,-0.5195 -0.88195,-0.52917 -19.84375,-0.52917 -18.96181,0 -19.32425,0.01 -19.84375,0.52917 -0.47616,0.47615 -0.52917,0.88194 -0.52917,4.05047 0,3.55803 0.14314,4.16665 1.05833,4.49979 0.21828,0.0795 9.0683,0.12293 19.66671,0.0966 18.74061,-0.0466 19.28015,-0.062 19.64532,-0.56148 z m -11.92765,-2.04089 c -1.36812,-0.74831 -1.62887,-2.45529 -0.54119,-3.54296 0.83644,-0.83645 2.00386,-0.84523 2.9606,-0.0222 1.92898,1.65923 -0.19142,4.78383 -2.41941,3.56522 z m 1.5875,-1.93981 c 0,-0.60539 -0.88824,-0.88977 -1.20059,-0.38439 -0.32724,0.5295 0.0264,1.07746 0.63895,0.99006 0.35706,-0.051 0.56164,-0.27156 0.56164,-0.60567 z m 3.95672,1.5959 c -0.93104,-0.93104 -0.90765,-2.54863 0.0477,-3.30012 0.94359,-0.74223 2.08338,-0.70232 2.88676,0.10107 1.36893,1.36893 0.4236,3.84848 -1.46723,3.84848 -0.51551,0 -1.05786,-0.24006 -1.46724,-0.64943 z m 2.1287,-1.5959 c 0,-0.58372 -0.82257,-0.8744 -1.25386,-0.4431 -0.44471,0.4447 -0.006,1.14755 0.65736,1.05334 0.39031,-0.0554 0.5965,-0.26637 0.5965,-0.61024 z m -32.76118,0.4845 c -0.0987,-0.0987 -0.17945,-0.39911 -0.17945,-0.66759 0,-0.46735 0.44231,-0.48519 10.3849,-0.41892 10.18543,0.0679 10.38489,0.0794 10.38489,0.59838 0,0.51882 -0.19946,0.53052 -10.20544,0.59838 -5.613,0.0381 -10.2862,-0.0115 -10.3849,-0.11025 z m -3.72632,-5.779799 c 0.63535,-0.58882 0.9419,-0.66145 2.79175,-0.66145 h 2.07804 v -0.765738 -0.765736 l -2.14112,-0.09723 c -2.02875,-0.09213 -2.18149,-0.142417 -2.91042,-0.958231 l -0.7693,-0.860997 v -4.249512 -4.249513 l 0.7734,-0.773396 0.7734,-0.773398 h 20.14904 20.14904 l 0.77339,0.773398 0.7734,0.773396 v 4.249513 4.249512 l -0.7693,0.860997 c -0.72893,0.815814 -0.88167,0.866103 -2.91042,0.958231 l -2.14111,0.09723 v 0.765736 0.765738 h 2.09636 c 1.87856,0 2.18242,0.0724 2.92461,0.69692 0.74284,0.625049 0.98537,0.682669 2.35196,0.558749 2.89168,-0.26221 5.45689,-2.018986 6.93888,-4.752084 0.855,-1.576785 0.90172,-1.80008 0.90153,-4.308798 -1.9e-4,-2.382584 -0.0735,-2.784938 -0.73664,-4.043932 -1.66798,-3.166594 -4.34285,-4.837017 -8.1267,-5.075023 l -2.24896,-0.141462 -0.14146,-2.248959 c -0.17127,-2.722814 -0.9962,-4.709536 -2.63667,-6.35 -2.98781,-2.98781 -8.07234,-3.505973 -11.51018,-1.172996 -0.5218,0.354105 -1.11846,0.643829 -1.3259,0.643829 -0.20745,0 -0.80887,-0.885322 -1.33651,-1.967381 -3.8632,-7.922542 -14.17714,-9.770271 -20.35066,-3.645794 -3.38557,3.358687 -4.66635,8.062082 -3.41236,12.531257 0.23593,0.840864 0.36558,1.69404 0.2881,1.895949 -0.0814,0.212005 -0.70103,0.433451 -1.46668,0.524131 -1.83851,0.217742 -3.91692,1.327801 -5.38906,2.878231 -4.51351,4.753568 -2.39749,12.968066 3.84319,14.919412 1.58325,0.49505 1.91768,0.46051 2.71736,-0.280599 z m 2.84316,-23.827198 c -0.24123,-0.628626 0.11122,-2.676244 0.68322,-3.969356 0.69089,-1.561878 2.69528,-3.652121 4.16425,-4.342617 0.66077,-0.310597 1.86064,-0.686591 2.66639,-0.835541 1.21529,-0.22466 1.53382,-0.201999 1.86876,0.132937 0.54558,0.545582 -0.004,1.224069 -0.99126,1.224069 -3.12921,0 -6.88301,3.610266 -6.89132,6.627813 -0.004,1.352457 -1.10088,2.202878 -1.50004,1.162695 z m 32.18913,22.371994 v -0.793751 h -14.2875 -14.2875 v 0.793751 0.793754 h 14.2875 14.2875 z m 5.60156,-2.819133 c 0.4227,-0.38254 0.48385,-0.884122 0.48385,-3.968751 0,-3.17809 -0.0529,-3.583736 -0.52916,-4.060034 -0.5195,-0.519501 -0.88195,-0.529166 -19.84375,-0.529166 -18.96181,0 -19.32425,0.0097 -19.84375,0.529166 -0.4756,0.475599 -0.52917,0.881944 -0.52917,4.014063 0,2.871436 0.0771,3.570071 0.43788,3.96875 0.41665,0.460391 1.38109,0.483854 19.88907,0.483854 17.72823,0 19.49403,-0.03879 19.93503,-0.437882 z m -11.4224,-1.865641 c -1.61063,-0.588775 -2.10014,-2.499548 -0.93806,-3.661627 0.72466,-0.724668 2.0898,-0.863164 2.84589,-0.288727 1.27401,0.967928 1.08631,3.012935 -0.34445,3.752813 -0.78924,0.408131 -0.93642,0.426728 -1.56338,0.197541 z m 1.23511,-1.818034 c 0.0881,-0.229566 -0.0347,-0.612267 -0.27289,-0.850448 -0.40101,-0.401018 -0.46562,-0.400481 -0.87334,0.0072 -0.36372,0.363714 -0.38109,0.511627 -0.0999,0.850445 0.43876,0.528669 1.04183,0.525166 1.24613,-0.0073 z m 4.42689,1.627791 c -1.34263,-0.58564 -1.64359,-2.519763 -0.55171,-3.545531 1.4184,-1.332524 3.62096,-0.344326 3.62096,1.624579 0,0.930505 -0.70581,2.033468 -1.30127,2.033468 -0.13362,0 -0.40151,0.05519 -0.59531,0.122645 -0.19381,0.06745 -0.72151,-0.03837 -1.17267,-0.235161 z m 1.59546,-1.65425 c 0.0964,-0.2511 -0.006,-0.620421 -0.23628,-0.850447 -0.36574,-0.365739 -0.45011,-0.36308 -0.83965,0.02646 -0.23818,0.238181 -0.36098,0.620882 -0.27289,0.850448 0.21221,0.552987 1.1334,0.534916 1.34882,-0.02646 z m -32.74259,0.270524 c -0.32967,-0.329669 -0.18447,-1.09105 0.23906,-1.253575 0.65236,-0.250333 19.7778,-0.180581 20.17888,0.07359 0.19622,0.124349 0.31367,0.449948 0.26102,0.723553 -0.0915,0.475195 -0.55239,0.50056 -10.29763,0.566672 -5.61103,0.03807 -10.28263,-0.01154 -10.38133,-0.110244 z m 43.00055,33.722486 c -0.75669,-0.75669 -0.0604,-1.91172 1.057,-1.75332 1.11841,0.15854 0.8454,2.07082 -0.29564,2.07082 -0.24412,0 -0.58673,-0.14287 -0.76136,-0.3175 z m -56.18622,-3.64455 c -3.01758,-0.91161 -4.45821,-4.01681 -3.13331,-6.75369 2.07044,-4.27696 8.40735,-3.31225 9.15093,1.39312 0.35418,2.24123 -1.27764,4.71488 -3.52136,5.33797 -1.14046,0.31671 -1.5116,0.32007 -2.49626,0.0226 z m 3.66324,-2.48229 c 0.69144,-0.75449 0.87631,-1.18308 0.87631,-2.03157 0,-2.05026 -1.3606,-3.48325 -3.30729,-3.48325 -1.95717,0 -3.30729,1.43308 -3.30729,3.51049 0,0.93399 0.16219,1.26479 1.06064,2.16325 1.01962,1.01961 1.11366,1.05555 2.43099,0.92897 1.15262,-0.11075 1.50957,-0.2836 2.24664,-1.08789 z m 55.62438,-11.24628 c -0.9919,-0.8032 -0.0615,-2.20805 1.15358,-1.74179 0.56507,0.21684 0.76989,0.85163 0.46101,1.42879 -0.38512,0.7196 -0.97196,0.83337 -1.61459,0.313 z m -58.03646,-1.51057 c -0.51825,-0.51824 -0.52985,-1.01225 -0.0335,-1.42422 0.60913,-0.50553 1.58916,-0.23535 1.68852,0.4655 0.16589,1.17026 -0.8532,1.76059 -1.65506,0.95872 z m -3.84481,-26.426719 c -0.70285,-0.846886 0.32947,-2.147827 1.24622,-1.570498 0.91608,0.5769 0.58971,1.954663 -0.46302,1.954663 -0.2554,0 -0.60784,-0.172874 -0.7832,-0.384165 z m 59.80409,-7.4876 c -2.57802,-1.314569 -2.81636,-4.93203 -0.42242,-6.411566 1.16895,-0.722456 3.11004,-0.714627 4.13708,0.01669 1.70349,1.212993 2.11245,3.777768 0.84295,5.286484 -1.27368,1.513686 -2.95898,1.923547 -4.55761,1.108392 z m 3.28841,-1.965979 c 0.85959,-1.021561 0.75681,-2.149213 -0.27897,-3.060695 -0.78704,-0.692589 -1.43783,-0.747225 -2.48015,-0.208224 -1.97879,1.023273 -1.12545,4.110829 1.13615,4.110829 0.70298,0 1.07843,-0.194765 1.62297,-0.84191 z m -55.68446,-6.547258 c -0.50582,-0.945146 0.36491,-1.852216 1.39761,-1.455931 0.57838,0.221947 0.8227,1.113019 0.43368,1.581754 -0.45447,0.547608 -1.50968,0.475107 -1.83129,-0.125823 z m 42.23489,0.333611 c -0.28749,-0.287481 -0.20113,-1.280537 0.14111,-1.622777 0.79738,-0.797377 1.97755,-0.0059 1.69138,1.134272 -0.12878,0.5131 -0.33687,0.664895 -0.91149,0.664895 -0.40954,0 -0.82399,-0.07937 -0.921,-0.17639 z"
       id="path859"
       inkscape:connector-curvature="0" />
    <path
       style="fill:#ffffff;fill-opacity:1;stroke-width:0.26458335"
       d="m -241.4987,129.19144 c -2.34656,-0.9357 -3.34775,-3.90448 -2.12503,-6.30122 1.80175,-3.53172 7.32022,-2.77203 8.20001,1.12883 0.78661,3.48772 -2.74949,6.49844 -6.07498,5.17239 z m 3.75731,-2.00276 c 1.40951,-1.3504 1.19853,-3.61695 -0.42907,-4.60946 -1.73695,-1.05919 -3.85018,-0.27732 -4.42363,1.6367 -0.29239,0.97591 -0.27126,1.21286 0.18402,2.06317 1.01949,1.90405 3.18942,2.32681 4.66868,0.90959 z m 9.78405,0.91094 c 0.0721,-0.50802 0.26883,-0.60714 1.34132,-0.67595 l 1.25677,-0.0807 v -4.21878 -4.21884 h -10.85846 c -10.15299,0 -10.92223,-0.0327 -11.8401,-0.50341 -1.24116,-0.63651 -2.03533,-1.48545 -2.55652,-2.73285 -0.35767,-0.85602 -0.40951,-3.5776 -0.40951,-21.502279 0,-17.924681 0.0518,-20.646256 0.40951,-21.502284 0.52119,-1.247399 1.31536,-2.096339 2.55652,-2.732842 0.94783,-0.486079 2.01208,-0.503417 30.90064,-0.503417 28.88856,0 29.95281,0.01733 30.90065,0.503417 1.24116,0.636503 2.03532,1.485443 2.55652,2.732842 0.35767,0.856028 0.4095,3.577603 0.4095,21.502284 0,17.924679 -0.0518,20.646259 -0.4095,21.502279 -0.5212,1.2474 -1.31536,2.09634 -2.55652,2.73285 -0.91729,0.47041 -1.68486,0.50341 -11.70781,0.50341 h -10.72617 v 4.23334 4.23333 h 1.29461 c 0.79443,0 1.3416,0.12777 1.41623,0.33073 0.359,0.97622 0.18064,0.99218 -11.08567,0.99218 h -10.97656 z m 6.43455,-4.96093 v -4.10104 l -1.12448,-0.0814 -1.12448,-0.0814 v 4.26376 4.26375 l 1.12448,-0.0814 1.12448,-0.0814 z m 7.54062,-0.009 v -4.242 l -2.97656,0.0748 -2.97656,0.0748 -0.0729,4.16719 -0.0729,4.16718 h 3.04943 3.04942 z m 3.70417,0.009 v -4.23334 h -1.05833 -1.05834 v 4.23334 4.23333 h 1.05834 1.05833 z m 23.72701,-6.24537 c 0.41082,-0.30625 0.98507,-0.96109 1.27612,-1.45521 0.5168,-0.8774 0.52916,-1.37423 0.52916,-21.271299 0,-22.657275 0.10503,-21.321272 -1.78194,-22.667162 l -0.86389,-0.616173 h -29.76563 -29.76562 l -0.86389,0.616173 c -1.8742,1.336778 -1.77293,0.169595 -1.86335,21.476537 -0.0448,10.550264 -0.007,19.801364 0.0835,20.558004 0.19961,1.66513 1.01402,2.96213 2.25212,3.58667 0.86407,0.43587 2.74023,0.46031 30.46861,0.39688 l 29.54784,-0.0676 z m -31.34106,-1.83943 c -1.13374,-0.7941 -0.57193,-2.49854 0.82357,-2.49854 1.05439,0 1.49881,0.40351 1.49881,1.36083 0,0.69548 -0.80208,1.54959 -1.45521,1.54959 -0.15352,0 -0.54375,-0.18535 -0.86717,-0.41188 z m -28.51182,-5.47394 c -0.0697,-0.18254 -0.096,-8.24955 -0.0583,-17.926681 l 0.0685,-17.594793 h 29.23646 29.23646 v 17.859377 17.859377 l -29.17817,0.0673 c -23.20281,0.0535 -29.20415,-5.3e-4 -29.30499,-0.26458 z m 57.02795,-8.53397 v -7.540627 h -3.80406 c -3.04413,0 -3.8693,-0.07861 -4.13064,-0.393507 -0.17962,-0.216427 -0.25747,-0.573614 -0.17299,-0.79375 0.12767,-0.332706 0.82467,-0.400243 4.13064,-0.400243 h 3.97705 v -0.786858 -0.78686 l -4.03489,-0.07304 c -3.83416,-0.06941 -4.0349,-0.09936 -4.0349,-0.602205 0,-0.502841 0.20074,-0.532799 4.0349,-0.602205 l 4.03489,-0.07304 v -0.786861 -0.786857 h -3.97705 c -3.30597,0 -4.00297,-0.06754 -4.13064,-0.400244 -0.0845,-0.220136 -0.007,-0.577323 0.17299,-0.79375 0.26134,-0.314896 1.08651,-0.393507 4.13064,-0.393507 h 3.80406 v -0.786857 -0.78686 l -4.03489,-0.07304 c -3.83416,-0.06941 -4.0349,-0.09936 -4.0349,-0.602205 0,-0.502841 0.20074,-0.532799 4.0349,-0.602205 l 4.03489,-0.07303 v -0.779968 -0.779968 l -4.03489,-0.07304 c -3.83416,-0.06941 -4.0349,-0.09936 -4.0349,-0.602205 0,-0.50284 0.20074,-0.532799 4.0349,-0.602205 l 4.03489,-0.07303 v -0.779786 -0.779785 l -3.87417,-0.07322 c -3.37862,-0.06385 -3.91166,-0.133408 -4.16719,-0.543772 -0.49825,-0.80015 0.26899,-0.976301 4.27105,-0.980604 l 3.77031,-0.004 v -0.79375 -0.79375 h -27.78125 -27.78125 v 0.79375 0.79375 h 3.80406 c 3.05861,0 3.86861,0.07777 4.13344,0.396875 0.26278,0.316632 0.26278,0.477118 0,0.79375 -0.26483,0.319103 -1.07483,0.396875 -4.13344,0.396875 h -3.80406 v 0.786857 0.786861 l 4.0349,0.07303 c 3.83416,0.06941 4.03489,0.09936 4.03489,0.602205 0,0.502841 -0.20073,0.5328 -4.03489,0.602205 l -4.0349,0.07304 v 0.779968 0.779968 l 4.0349,0.07303 c 3.83416,0.06941 4.03489,0.09936 4.03489,0.602205 0,0.502841 -0.20073,0.532799 -4.03489,0.602205 l -4.0349,0.07304 v 0.78686 0.786857 h 3.80406 c 3.04414,0 3.86931,0.07861 4.13064,0.393507 0.17963,0.216427 0.25747,0.573614 0.173,0.79375 -0.12767,0.332706 -0.82468,0.400244 -4.13065,0.400244 h -3.97705 v 0.786857 0.786861 l 4.0349,0.07304 c 3.83416,0.06941 4.03489,0.09936 4.03489,0.602205 0,0.502841 -0.20073,0.532799 -4.03489,0.602205 l -4.0349,0.07304 v 0.78686 0.786858 h 3.97705 c 3.30597,0 4.00298,0.06754 4.13065,0.400243 0.0845,0.220136 0.007,0.577323 -0.173,0.79375 -0.26133,0.314896 -1.0865,0.393507 -4.13064,0.393507 h -3.80406 v 7.540626 7.54062 h 27.78125 27.78125 z m -45.65838,4.01789 c -0.0734,-0.19125 -0.0994,-1.64977 -0.0578,-3.24115 l 0.0756,-2.89341 1.7765,-0.078 1.7765,-0.078 0.0756,-2.567815 0.0756,-2.567813 6.54844,-0.07077 6.54844,-0.07077 v -1.951069 c 0,-1.843932 -0.0352,-1.959907 -0.64107,-2.111968 -0.85198,-0.213834 -2.19484,-1.366171 -2.67573,-2.296097 -0.9915,-1.917364 -0.13167,-4.724741 1.77535,-5.796547 3.01244,-1.693085 6.58264,0.284554 6.60879,3.660801 0.0151,1.94803 -0.65239,3.105439 -2.34029,4.058026 l -1.42687,0.805276 0.0775,1.754264 0.0775,1.754267 6.48229,0.132292 6.4823,0.132291 0.0757,2.579688 0.0757,2.579684 h 1.85064 1.85065 l -0.0743,3.24115 -0.0743,3.24115 -4.69635,0.0722 -4.69636,0.0722 v -3.3027 -3.3027 l 2.18281,-0.0768 2.18282,-0.0769 v -1.852083 -1.852083 h -5.82084 -5.82083 v 1.852083 1.852083 l 1.98437,0.13229 1.98438,0.13229 v 3.175 3.175 h -4.7625 -4.7625 v -3.175 -3.175 l 2.06188,-0.0775 2.06189,-0.0775 -0.0775,-1.906893 -0.0775,-1.906895 h -5.82084 -5.82083 v 1.852083 1.852085 l 2.10858,0.0783 c 1.27575,0.0474 2.18854,0.20414 2.31105,0.39687 0.2401,0.37775 0.2817,5.24932 0.05,5.85317 -0.13794,0.35947 -0.81097,0.41851 -4.7708,0.41851 -3.56432,0 -4.64048,-0.0789 -4.74365,-0.34773 z m 8.08755,-2.96746 v -1.99228 l -3.37344,0.074 -3.37344,0.074 -0.0804,1.55787 c -0.0442,0.85683 -0.0182,1.72003 0.0578,1.91823 0.10652,0.27756 0.9001,0.36036 3.45388,0.36036 h 3.3156 z m 12.83229,0.008 v -1.85209 l -3.37344,-0.074 -3.37343,-0.074 v 2.00019 2.00018 l 3.37343,-0.074 3.37344,-0.074 z m 12.77774,-0.0662 0.0777,-1.91823 h -3.45118 -3.45117 v 1.80798 c 0,0.9944 0.0829,1.89084 0.18411,1.99211 0.10127,0.10126 1.61931,0.15087 3.37344,0.11024 l 3.18932,-0.0739 0.0777,-1.91823 z m -14.88869,-14.241794 c 0.9064,-0.430114 1.71408,-1.723408 1.71408,-2.74466 0,-0.908281 -0.73808,-2.087309 -1.57884,-2.522083 -3.0233,-1.563407 -5.9809,2.377707 -3.5111,4.678667 1.18202,1.101212 1.99577,1.242968 3.37586,0.588076 z m 10.722,35.489174 c -0.56683,-0.68298 -0.23289,-1.59196 0.62066,-1.68939 1.13954,-0.13009 1.61329,0.8462 0.80356,1.65593 -0.51824,0.51824 -1.01226,0.52985 -1.42422,0.0335 z m -27.04117,-0.92787 c -0.49379,-0.40526 -0.56246,-0.60271 -0.33761,-0.97066 0.56172,-0.91923 1.12066,-1.06402 1.73519,-0.4495 0.63102,0.63103 0.53819,1.22467 -0.25815,1.65086 -0.40519,0.21685 -0.65599,0.16607 -1.13943,-0.2307 z m 46.80669,0.23066 c -1.1544,-0.67237 -0.0551,-2.4622 1.12447,-1.83089 0.68239,0.3652 0.69292,1.48124 0.0174,1.84277 -0.60907,0.32597 -0.56095,0.32647 -1.14187,-0.0119 z m -48.86297,-55.210993 c -1.9425,-0.990508 -2.64682,-3.184914 -1.61276,-5.024781 0.73123,-1.301037 1.75306,-1.920122 3.16927,-1.920122 2.23813,0 3.71355,1.489179 3.71536,3.750011 7.9e-4,0.948801 -0.16024,1.428076 -0.69199,2.060025 -1.34059,1.593207 -2.91563,1.983489 -4.57988,1.134867 z m 3.1031,-1.66056 c 1.19559,-1.113861 0.91286,-2.944166 -0.56414,-3.652074 -2.18698,-1.048195 -4.16005,1.81659 -2.4375,3.539132 0.81698,0.816983 2.19047,0.868661 3.00164,0.112942 z m 9.4647,1.708217 c -0.51824,-0.518242 -0.52985,-1.012257 -0.0335,-1.424224 0.60913,-0.505534 1.58916,-0.235352 1.68852,0.465498 0.16589,1.170263 -0.8532,1.76059 -1.65506,0.958726 z m 22.47783,-1.243955 c -0.7713,-0.771303 -0.93319,-1.125762 -0.93319,-2.043282 0,-2.125163 1.76038,-3.451044 3.82506,-2.880958 1.97834,0.546245 2.6738,3.170947 1.25959,4.753724 -0.56626,0.633759 -1.02264,0.856224 -1.97723,0.963819 -1.15062,0.129693 -1.30903,0.0719 -2.17423,-0.793303 z m 3.19929,-1.393817 c 0.83757,-1.278291 -0.59909,-2.731743 -1.97325,-1.996316 -0.76658,0.410261 -0.95687,1.254585 -0.45528,2.020107 0.58851,0.898181 1.83241,0.885992 2.42853,-0.02379 z m -12.32525,0.160523 c -0.35422,-0.661871 -0.35,-0.697236 0.14188,-1.18912 0.61641,-0.616409 1.40521,-0.508921 1.74546,0.237849 0.22772,0.499786 0.21876,0.748875 -0.0381,1.058334 -0.46976,0.566034 -1.52164,0.505135 -1.84927,-0.107063 z m -32.92449,-1.950447 c -0.57528,-0.420653 -0.47879,-1.466451 0.17299,-1.875031 1.03651,-0.649748 2.09116,1.14957 1.09904,1.875031 -0.25992,0.190054 -0.54612,0.345553 -0.63602,0.345553 -0.0899,0 -0.3761,-0.155499 -0.63601,-0.345553 z m 52.86475,-0.650686 c -0.83318,-0.556452 -0.47,-1.914178 0.51203,-1.914178 1.12872,0 1.5805,0.938857 0.81846,1.700893 -0.45073,0.450729 -0.87349,0.5185 -1.33049,0.213285 z"
       id="path861"
       inkscape:connector-curvature="0" />
    <g
       id="g1325"
       transform="translate(3.0238095)"
       style="fill:#ffffff;fill-opacity:1">
      <path
         sodipodi:nodetypes="cccc"
         inkscape:connector-curvature="0"
         id="rect1315"
         d="m -316.36609,94.971731 9.07143,-4.53572 v 9.07143 z"
         style="opacity:1;vector-effect:none;fill:#ffffff;fill-opacity:1;stroke:none;stroke-width:1;stroke-linecap:round;stroke-linejoin:round;stroke-miterlimit:4;stroke-dasharray:none;stroke-dashoffset:0;stroke-opacity:1;paint-order:fill markers stroke" />
      <path
         style="opacity:1;vector-effect:none;fill:#ffffff;fill-opacity:1;stroke:none;stroke-width:1;stroke-linecap:round;stroke-linejoin:round;stroke-miterlimit:4;stroke-dasharray:none;stroke-dashoffset:0;stroke-opacity:1;paint-order:fill markers stroke"
         d="m -269.30806,94.971731 -9.07143,-4.53572 v 9.07143 z"
         id="path1318"
         inkscape:connector-curvature="0"
         sodipodi:nodetypes="cccc" />
      <path
         style="color:#000000;font-style:normal;font-variant:normal;font-weight:normal;font-stretch:normal;font-size:medium;line-height:normal;font-family:sans-serif;font-variant-ligatures:normal;font-variant-position:normal;font-variant-caps:normal;font-variant-numeric:normal;font-variant-alternates:normal;font-feature-settings:normal;text-indent:0;text-align:start;text-decoration:none;text-decoration-line:none;text-decoration-style:solid;text-decoration-color:#000000;letter-spacing:normal;word-spacing:normal;text-transform:none;writing-mode:lr-tb;direction:ltr;text-orientation:mixed;dominant-baseline:auto;baseline-shift:baseline;text-anchor:start;white-space:normal;shape-padding:0;clip-rule:nonzero;display:inline;overflow:visible;visibility:visible;opacity:1;isolation:auto;mix-blend-mode:normal;color-interpolation:sRGB;color-interpolation-filters:linearRGB;solid-color:#000000;solid-opacity:1;vector-effect:none;fill:#ffffff;fill-opacity:1;fill-rule:nonzero;stroke:none;stroke-width:2;stroke-linecap:butt;stroke-linejoin:miter;stroke-miterlimit:4;stroke-dasharray:none;stroke-dashoffset:0;stroke-opacity:1;color-rendering:auto;image-rendering:auto;shape-rendering:auto;text-rendering:auto;enable-background:accumulate"
         d="m -308.05078,93.972656 v 2 h 30.99414 v -2 z"
         id="path1320"
         inkscape:connector-curvature="0" />
    </g>
  </g>
</svg>
